<svg data-v-423bf9ae="" xmlns="http://www.w3.org/2000/svg" viewBox="0 0 661 90" class="iconLeft"><!----><!----><!----><g data-v-423bf9ae="" id="6408391f-f09c-4d3a-8b1d-5baa48088203" fill="#FFFFFF" transform="matrix(5.703421805055199,0,0,5.703421805055199,104.41065892801709,-3.0228150624331036)"><path d="M12.38 13.55L9.83 13.55L9.80 8.36L7.28 12.59L6.05 12.59L3.54 8.50L3.54 13.55L0.98 13.55L0.98 3.75L3.26 3.75L6.71 9.41L10.07 3.75L12.35 3.75L12.38 13.55ZM17.44 5.84L17.44 5.84Q19.33 5.84 20.33 6.70L20.33 6.70L20.33 6.70Q21.32 7.56 21.32 9.34L21.32 9.34L21.32 13.55L18.84 13.55L18.84 12.57L18.84 12.57Q18.27 13.68 16.60 13.68L16.60 13.68L16.60 13.68Q15.72 13.68 15.08 13.37L15.08 13.37L15.08 13.37Q14.43 13.06 14.11 12.54L14.11 12.54L14.11 12.54Q13.78 12.01 13.78 11.34L13.78 11.34L13.78 11.34Q13.78 10.26 14.60 9.67L14.60 9.67L14.60 9.67Q15.43 9.07 17.15 9.07L17.15 9.07L18.66 9.07L18.66 9.07Q18.59 7.87 17.05 7.87L17.05 7.87L17.05 7.87Q16.51 7.87 15.95 8.04L15.95 8.04L15.95 8.04Q15.39 8.22 14.99 8.53L14.99 8.53L14.10 6.72L14.10 6.72Q14.73 6.30 15.63 6.07L15.63 6.07L15.63 6.07Q16.53 5.84 17.44 5.84L17.44 5.84ZM17.35 12.00L17.35 12.00Q17.81 12.00 18.16 11.77L18.16 11.77L18.16 11.77Q18.51 11.55 18.66 11.12L18.66 11.12L18.66 10.46L17.51 10.46L17.51 10.46Q16.35 10.46 16.35 11.23L16.35 11.23L16.35 11.23Q16.35 11.58 16.62 11.79L16.62 11.79L16.62 11.79Q16.88 12.00 17.35 12.00L17.35 12.00ZM27.58 11.38L28.24 13.24L28.24 13.24Q27.90 13.45 27.42 13.57L27.42 13.57L27.42 13.57Q26.94 13.68 26.39 13.68L26.39 13.68L26.39 13.68Q24.91 13.68 24.11 12.95L24.11 12.95L24.11 12.95Q23.31 12.22 23.31 10.78L23.31 10.78L23.31 8.23L22.20 8.23L22.20 6.24L23.31 6.24L23.31 4.27L25.97 4.27L25.97 6.24L27.71 6.24L27.71 8.23L25.97 8.23L25.97 10.75L25.97 10.75Q25.97 11.16 26.19 11.39L26.19 11.39L26.19 11.39Q26.40 11.62 26.77 11.62L26.77 11.62L26.77 11.62Q27.23 11.62 27.58 11.38L27.58 11.38ZM33.14 13.68L33.14 13.68Q31.88 13.68 30.88 13.17L30.88 13.17L30.88 13.17Q29.89 12.67 29.34 11.77L29.34 11.77L29.34 11.77Q28.78 10.88 28.78 9.74L28.78 9.74L28.78 9.74Q28.78 8.61 29.34 7.72L29.34 7.72L29.34 7.72Q29.89 6.83 30.88 6.33L30.88 6.33L30.88 6.33Q31.88 5.84 33.14 5.84L33.14 5.84L33.14 5.84Q34.43 5.84 35.36 6.39L35.36 6.39L35.36 6.39Q36.30 6.94 36.69 7.92L36.69 7.92L34.64 8.97L34.64 8.97Q34.12 7.95 33.12 7.95L33.12 7.95L33.12 7.95Q32.41 7.95 31.94 8.43L31.94 8.43L31.94 8.43Q31.47 8.90 31.47 9.74L31.47 9.74L31.47 9.74Q31.47 10.60 31.94 11.08L31.94 11.08L31.94 11.08Q32.41 11.56 33.12 11.56L33.12 11.56L33.12 11.56Q34.12 11.56 34.64 10.54L34.64 10.54L36.69 11.59L36.69 11.59Q36.30 12.57 35.36 13.13L35.36 13.13L35.36 13.13Q34.43 13.68 33.14 13.68L33.14 13.68ZM42.64 5.84L42.64 5.84Q44.06 5.84 44.92 6.68L44.92 6.68L44.92 6.68Q45.78 7.52 45.78 9.21L45.78 9.21L45.78 13.55L43.12 13.55L43.12 9.65L43.12 9.65Q43.12 8.09 41.87 8.09L41.87 8.09L41.87 8.09Q41.19 8.09 40.77 8.54L40.77 8.54L40.77 8.54Q40.36 8.99 40.36 9.88L40.36 9.88L40.36 13.55L37.70 13.55L37.70 3.16L40.36 3.16L40.36 6.66L40.36 6.66Q40.80 6.26 41.38 6.05L41.38 6.05L41.38 6.05Q41.97 5.84 42.64 5.84L42.64 5.84ZM58.97 13.55L56.42 13.55L56.39 8.36L53.87 12.59L52.64 12.59L50.13 8.50L50.13 13.55L47.57 13.55L47.57 3.75L49.85 3.75L53.30 9.41L56.66 3.75L58.94 3.75L58.97 13.55ZM64.04 5.84L64.04 5.84Q65.93 5.84 66.92 6.70L66.92 6.70L66.92 6.70Q67.91 7.56 67.91 9.34L67.91 9.34L67.91 13.55L65.44 13.55L65.44 12.57L65.44 12.57Q64.86 13.68 63.20 13.68L63.20 13.68L63.20 13.68Q62.31 13.68 61.67 13.37L61.67 13.37L61.67 13.37Q61.03 13.06 60.70 12.54L60.70 12.54L60.70 12.54Q60.37 12.01 60.37 11.34L60.37 11.34L60.37 11.34Q60.37 10.26 61.19 9.67L61.19 9.67L61.19 9.67Q62.02 9.07 63.74 9.07L63.74 9.07L65.25 9.07L65.25 9.07Q65.18 7.87 63.64 7.87L63.64 7.87L63.64 7.87Q63.10 7.87 62.54 8.04L62.54 8.04L62.54 8.04Q61.98 8.22 61.59 8.53L61.59 8.53L60.69 6.72L60.69 6.72Q61.32 6.30 62.22 6.07L62.22 6.07L62.22 6.07Q63.13 5.84 64.04 5.84L64.04 5.84ZM63.94 12.00L63.94 12.00Q64.40 12.00 64.75 11.77L64.75 11.77L64.75 11.77Q65.10 11.55 65.25 11.12L65.25 11.12L65.25 10.46L64.11 10.46L64.11 10.46Q62.94 10.46 62.94 11.23L62.94 11.23L62.94 11.23Q62.94 11.58 63.21 11.79L63.21 11.79L63.21 11.79Q63.48 12.00 63.94 12.00L63.94 12.00ZM72.35 13.68L72.35 13.68Q71.40 13.68 70.48 13.46L70.48 13.46L70.48 13.46Q69.55 13.24 68.99 12.89L68.99 12.89L69.79 11.07L69.79 11.07Q70.31 11.40 71.02 11.58L71.02 11.58L71.02 11.58Q71.74 11.77 72.44 11.77L72.44 11.77L72.44 11.77Q73.08 11.77 73.35 11.64L73.35 11.64L73.35 11.64Q73.63 11.51 73.63 11.26L73.63 11.26L73.63 11.26Q73.63 11.00 73.30 10.90L73.30 10.90L73.30 10.90Q72.97 10.79 72.25 10.70L72.25 10.70L72.25 10.70Q71.34 10.58 70.71 10.40L70.71 10.40L70.71 10.40Q70.07 10.22 69.61 9.73L69.61 9.73L69.61 9.73Q69.15 9.24 69.15 8.36L69.15 8.36L69.15 8.36Q69.15 7.63 69.58 7.06L69.58 7.06L69.58 7.06Q70.01 6.50 70.85 6.17L70.85 6.17L70.85 6.17Q71.68 5.84 72.84 5.84L72.84 5.84L72.84 5.84Q73.67 5.84 74.48 6.01L74.48 6.01L74.48 6.01Q75.29 6.17 75.84 6.48L75.84 6.48L75.04 8.29L75.04 8.29Q74.03 7.73 72.86 7.73L72.86 7.73L72.86 7.73Q72.23 7.73 71.93 7.87L71.93 7.87L71.93 7.87Q71.64 8.02 71.64 8.26L71.64 8.26L71.64 8.26Q71.64 8.53 71.96 8.63L71.96 8.63L71.96 8.63Q72.28 8.74 73.02 8.85L73.02 8.85L73.02 8.85Q73.96 8.99 74.58 9.17L74.58 9.17L74.58 9.17Q75.19 9.35 75.65 9.83L75.65 9.83L75.65 9.83Q76.10 10.32 76.10 11.19L76.10 11.19L76.10 11.19Q76.10 11.90 75.67 12.47L75.67 12.47L75.67 12.47Q75.24 13.03 74.39 13.36L74.39 13.36L74.39 13.36Q73.54 13.68 72.35 13.68L72.35 13.68ZM81.83 11.38L82.49 13.24L82.49 13.24Q82.15 13.45 81.67 13.57L81.67 13.57L81.67 13.57Q81.19 13.68 80.64 13.68L80.64 13.68L80.64 13.68Q79.16 13.68 78.36 12.95L78.36 12.95L78.36 12.95Q77.56 12.22 77.56 10.78L77.56 10.78L77.56 8.23L76.45 8.23L76.45 6.24L77.56 6.24L77.56 4.27L80.22 4.27L80.22 6.24L81.96 6.24L81.96 8.23L80.22 8.23L80.22 10.75L80.22 10.75Q80.22 11.16 80.44 11.39L80.44 11.39L80.44 11.39Q80.65 11.62 81.02 11.62L81.02 11.62L81.02 11.62Q81.48 11.62 81.83 11.38L81.83 11.38ZM91.27 9.77L91.27 9.77Q91.27 9.80 91.22 10.43L91.22 10.43L85.71 10.43L85.71 10.43Q85.88 11.02 86.36 11.33L86.36 11.33L86.36 11.33Q86.84 11.65 87.57 11.65L87.57 11.65L87.57 11.65Q88.12 11.65 88.51 11.49L88.51 11.49L88.51 11.49Q88.91 11.34 89.32 10.99L89.32 10.99L90.72 12.45L90.72 12.45Q89.61 13.68 87.49 13.68L87.49 13.68L87.49 13.68Q86.16 13.68 85.15 13.17L85.15 13.17L85.15 13.17Q84.14 12.67 83.59 11.77L83.59 11.77L83.59 11.77Q83.03 10.88 83.03 9.74L83.03 9.74L83.03 9.74Q83.03 8.62 83.57 7.73L83.57 7.73L83.57 7.73Q84.11 6.85 85.06 6.34L85.06 6.34L85.06 6.34Q86.02 5.84 87.21 5.84L87.21 5.84L87.21 5.84Q88.34 5.84 89.26 6.31L89.26 6.31L89.26 6.31Q90.19 6.78 90.73 7.66L90.73 7.66L90.73 7.66Q91.27 8.55 91.27 9.77L91.27 9.77ZM87.22 7.73L87.22 7.73Q86.60 7.73 86.19 8.08L86.19 8.08L86.19 8.08Q85.78 8.43 85.67 9.03L85.67 9.03L88.77 9.03L88.77 9.03Q88.66 8.43 88.25 8.08L88.25 8.08L88.25 8.08Q87.84 7.73 87.22 7.73L87.22 7.73ZM95.03 6.87L95.03 6.87Q95.44 6.36 96.09 6.10L96.09 6.10L96.09 6.10Q96.74 5.84 97.58 5.84L97.58 5.84L97.58 8.23L97.58 8.23Q97.22 8.19 96.98 8.19L96.98 8.19L96.98 8.19Q96.12 8.19 95.64 8.65L95.64 8.65L95.64 8.65Q95.16 9.11 95.16 10.07L95.16 10.07L95.16 13.55L92.50 13.55L92.50 5.96L95.03 5.96L95.03 6.87Z"></path></g><!----><g data-v-423bf9ae="" id="09d79184-9bf3-4a73-8530-a0c97135c141" transform="matrix(2.8125,0,0,2.8125,0,0)" stroke="none" fill="#33D0F4"><path d="M0 16.024L15.976 32 32 15.976 16.024 0 0 16.024zm15.989 7.323l-7.336-7.336 14.694-.022-7.358 7.358z"></path></g><!----></svg>